# xmcd CD database file
#
# Track frame offsets:
#	150
#	18522
#	33692
#	53547
#	75887
#	105585
#	124195
#	138117
#	169832
#	185282
#
# Disc length: 2800 seconds
#
# Revision: 0
# Processed by: cddbd v1.5.1PL0 Copyright (c) Steve Scherf et al.
# Submitted via: CDex 1.51
#
DISCID=730aee0a
DTITLE=Henghel Gualdi - In Concerto
DYEAR=1987
DGENRE=Jazz
TTITLE0=Americano
TTITLE1=Petite Fleur
TTITLE2=Cinema
TTITLE3=Fantitalia
TTITLE4=Orfeo
TTITLE5=Trittico
TTITLE6=Dardanella
TTITLE7=Glenn Miller
TTITLE8=Passeggiando Per Brooklin
TTITLE9=Nostalgia
EXTD=YEAR: 1987
EXTT0=
EXTT1=
EXTT2=
EXTT3=
EXTT4=
EXTT5=
EXTT6=
EXTT7=
EXTT8=
EXTT9=
PLAYORDER=
